{"glyphs":{"0":{"ha":765,"x_min":49,"x_max":715,"o":"m 478 832 l 286 832 l 215 758 l 215 240 l 286 167 l 478 167 l 549 242 l 549 293 l 549 757 l 478 832 l 478 832 m 549 999 l 715 832 l 715 293 l 715 167 l 549 0 l 215 0 l 215 0 l 49 167 l 49 167 l 49 167 l 49 414 l 49 585 l 49 832 l 49 832 l 49 832 l 215 999 l 215 999 l 549 999 l 549 999 z "},"1":{"ha":269,"x_min":50,"x_max":217,"o":"m 217 0 l 50 0 l 50 999 l 217 999 l 217 0 l 217 0 z "},"2":{"ha":765,"x_min":49,"x_max":715,"o":"m 549 999 l 715 832 l 715 793 l 715 585 l 715 582 l 549 417 l 300 417 l 215 333 l 215 167 l 715 167 l 715 0 l 215 0 l 49 0 l 49 417 l 49 417 l 49 417 l 215 583 l 300 583 l 463 583 l 478 583 l 549 657 l 549 758 l 478 832 l 286 832 l 215 758 l 215 665 l 49 665 l 49 832 l 215 999 l 549 999 l 549 999 l 549 999 z "},"3":{"ha":764,"x_min":49,"x_max":715,"o":"m 549 999 l 715 832 l 715 793 l 715 585 l 715 582 l 632 499 l 714 417 l 714 414 l 714 206 l 714 167 l 549 0 l 549 0 l 215 0 l 49 167 l 49 333 l 215 333 l 215 242 l 286 167 l 476 167 l 547 240 l 547 342 l 476 417 l 464 417 l 463 417 l 301 417 l 300 417 l 300 417 l 299 417 l 299 583 l 300 583 l 300 583 l 301 583 l 463 583 l 464 583 l 478 583 l 549 657 l 549 758 l 478 832 l 288 832 l 215 758 l 215 665 l 49 665 l 49 832 l 215 999 l 549 999 l 549 999 l 549 999 z "},"4":{"ha":781,"x_min":6,"x_max":743,"o":"m 506 743 l 226 417 l 506 417 l 506 743 l 506 743 m 743 417 l 743 250 l 672 250 l 672 0 l 506 0 l 506 250 l 6 250 l 6 292 l 6 417 l 6 417 l 506 999 l 506 999 l 672 999 l 672 417 l 743 417 l 743 417 z "},"5":{"ha":761,"x_min":47,"x_max":714,"o":"m 547 0 l 547 0 l 214 0 l 47 167 l 47 333 l 214 333 l 214 242 l 285 167 l 476 167 l 547 240 l 547 342 l 476 417 l 461 417 l 299 417 l 214 417 l 47 582 l 47 583 l 47 583 l 47 999 l 214 999 l 714 999 l 714 832 l 214 832 l 214 665 l 299 583 l 547 583 l 714 417 l 714 414 l 714 206 l 714 167 l 547 0 l 547 0 z "},"6":{"ha":765,"x_min":49,"x_max":715,"o":"m 463 417 l 300 417 l 215 333 l 215 242 l 286 167 l 478 167 l 549 240 l 549 342 l 478 417 l 463 417 l 463 417 m 549 583 l 715 417 l 715 167 l 549 0 l 549 0 l 215 0 l 49 167 l 49 832 l 49 832 l 215 999 l 215 999 l 549 999 l 715 832 l 715 665 l 549 665 l 549 758 l 476 832 l 286 832 l 215 758 l 215 583 l 549 583 l 549 583 z "},"7":{"ha":738,"x_min":35,"x_max":701,"o":"m 35 999 l 701 999 l 701 832 l 35 832 l 35 999 l 35 999 m 35 0 l 535 832 l 701 832 l 201 0 l 35 0 l 35 0 z "},"8":{"ha":765,"x_min":49,"x_max":715,"o":"m 288 832 l 215 758 l 215 658 l 286 583 l 478 583 l 549 657 l 549 758 l 478 832 l 288 832 l 288 832 m 286 417 l 215 342 l 215 242 l 286 167 l 476 167 l 547 240 l 547 342 l 476 417 l 286 417 m 549 999 l 715 832 l 715 582 l 632 499 l 714 417 l 714 167 l 549 0 l 549 0 l 215 0 l 49 167 l 49 417 l 131 500 l 49 583 l 49 832 l 215 999 l 549 999 l 549 999 l 549 999 z "},"9":{"ha":765,"x_min":49,"x_max":715,"o":"m 463 583 l 549 665 l 549 758 l 476 832 l 286 832 l 215 758 l 215 657 l 286 583 l 463 583 m 215 417 l 49 582 l 49 832 l 215 999 l 215 999 l 549 999 l 715 832 l 715 167 l 715 167 l 549 0 l 549 0 l 215 0 l 49 167 l 49 333 l 215 333 l 215 242 l 286 167 l 478 167 l 549 240 l 549 417 l 215 417 l 215 417 z "}," ":{"ha":694,"x_min":0,"x_max":0,"o":""},"f":{"ha":735,"x_min":35,"x_max":701,"o":"m 701 832 l 201 832 l 201 583 l 453 583 l 453 417 l 201 417 l 201 167 l 201 0 l 35 0 l 35 999 l 201 999 l 701 999 l 701 832 l 701 832 z "},"g":{"ha":764,"x_min":49,"x_max":715,"o":"m 715 458 l 715 292 l 715 292 l 715 167 l 549 0 l 215 0 l 215 0 l 49 167 l 49 167 l 49 167 l 49 414 l 49 585 l 49 832 l 49 832 l 49 832 l 215 999 l 215 999 l 549 999 l 715 832 l 715 708 l 549 708 l 549 757 l 476 832 l 286 832 l 215 758 l 215 240 l 286 167 l 476 167 l 549 242 l 549 292 l 467 292 l 467 458 l 715 458 l 715 458 z "},"h":{"ha":753,"x_min":43,"x_max":710,"o":"m 543 999 l 710 999 l 710 0 l 543 0 l 543 417 l 210 417 l 210 0 l 43 0 l 43 999 l 210 999 l 210 583 l 543 583 l 543 999 l 543 999 z "},"i":{"ha":269,"x_min":50,"x_max":217,"o":"m 217 0 l 50 0 l 50 999 l 217 999 l 217 0 l 217 0 z "},"j":{"ha":739,"x_min":35,"x_max":701,"o":"m 701 414 l 701 414 l 701 167 l 535 0 l 535 0 l 201 0 l 35 167 l 35 333 l 201 333 l 201 242 l 272 167 l 464 167 l 535 240 l 535 999 l 701 999 l 701 414 l 701 414 z "},"k":{"ha":758,"x_min":46,"x_max":713,"o":"m 713 999 l 394 574 l 713 0 l 522 0 l 285 428 l 213 333 l 213 333 l 213 0 l 46 0 l 46 999 l 213 999 l 213 608 l 508 999 l 713 999 l 713 999 z "},"l":{"ha":739,"x_min":38,"x_max":704,"o":"m 204 167 l 704 167 l 704 0 l 204 0 l 38 0 l 38 999 l 204 999 l 204 167 l 204 167 z "},"m":{"ha":933,"x_min":50,"x_max":883,"o":"m 717 999 l 883 999 l 883 0 l 717 0 l 717 636 l 558 0 l 392 0 l 217 694 l 217 0 l 50 0 l 50 999 l 140 999 l 140 999 l 307 999 l 475 333 l 640 999 l 717 999 l 717 999 l 717 999 z "},"n":{"ha":760,"x_min":46,"x_max":713,"o":"m 713 0 l 546 0 l 213 640 l 213 0 l 46 0 l 46 999 l 213 999 l 213 999 l 213 999 l 546 367 l 546 999 l 713 999 l 713 0 z "},"o":{"ha":765,"x_min":49,"x_max":715,"o":"m 286 832 l 215 758 l 215 240 l 286 167 l 478 167 l 549 242 l 549 293 l 549 757 l 478 832 l 286 832 m 715 832 l 715 293 l 715 167 l 549 0 l 215 0 l 49 167 l 49 414 l 49 585 l 49 832 l 215 999 l 549 999 l 715 832 z "},"p":{"ha":740,"x_min":38,"x_max":704,"o":"m 669 549 l 538 417 l 464 417 l 204 417 l 204 417 l 204 167 l 204 167 l 204 0 l 204 0 l 38 0 l 38 167 l 38 832 l 38 999 l 204 999 l 538 999 l 538 999 l 701 832 l 704 832 l 704 831 l 704 831 l 704 585 l 669 549 l 669 549 m 538 657 l 538 758 l 465 832 l 204 832 l 204 583 l 465 583 l 538 657 l 538 657 z "},"q":{"ha":758,"x_min":46,"x_max":713,"o":"m 546 757 l 474 832 l 283 832 l 213 758 l 213 240 l 283 167 l 388 167 l 331 267 l 497 267 l 525 219 l 546 240 l 546 757 m 546 999 l 713 832 l 713 292 l 713 165 l 613 67 l 692 -71 l 525 -71 l 485 0 l 213 0 l 213 0 l 46 165 l 46 165 l 46 165 l 46 414 l 46 585 l 46 832 l 46 832 l 46 832 l 213 997 l 213 999 l 546 999 l 546 999 z "},"r":{"ha":760,"x_min":46,"x_max":713,"o":"m 213 832 l 213 583 l 474 583 l 546 657 l 546 758 l 474 832 l 213 832 l 213 832 m 710 832 l 713 832 l 713 831 l 713 831 l 713 585 l 678 549 l 546 417 l 713 0 l 546 0 l 381 417 l 213 417 l 213 417 l 213 167 l 213 167 l 213 0 l 213 0 l 46 0 l 46 167 l 46 832 l 46 999 l 213 999 l 546 999 l 546 999 l 710 832 l 710 832 z "},"s":{"ha":765,"x_min":49,"x_max":715,"o":"m 714 414 l 715 414 l 715 167 l 549 0 l 549 0 l 215 0 l 49 167 l 49 333 l 215 333 l 215 242 l 286 167 l 478 167 l 547 240 l 547 342 l 476 417 l 463 417 l 300 417 l 215 417 l 49 583 l 49 585 l 49 793 l 49 833 l 214 999 l 214 999 l 547 999 l 714 833 l 714 667 l 547 667 l 547 758 l 476 832 l 286 832 l 215 758 l 215 658 l 286 583 l 300 583 l 463 583 l 547 583 l 714 417 l 714 414 l 714 414 z "},"t":{"ha":749,"x_min":40,"x_max":707,"o":"m 40 999 l 707 999 l 707 832 l 458 832 l 458 0 l 292 0 l 292 832 l 40 832 l 40 999 l 40 999 z "},"u":{"ha":758,"x_min":46,"x_max":713,"o":"m 546 999 l 713 999 l 713 708 l 713 293 l 713 167 l 546 0 l 213 0 l 213 0 l 46 167 l 46 167 l 46 167 l 46 414 l 46 585 l 46 706 l 46 706 l 46 999 l 213 999 l 213 708 l 213 708 l 213 240 l 283 167 l 474 167 l 546 242 l 546 293 l 546 708 l 546 708 l 546 999 z "},"v":{"ha":753,"x_min":43,"x_max":710,"o":"m 543 999 l 710 999 l 461 0 l 294 0 l 43 999 l 210 999 l 378 333 l 543 999 l 543 999 z "},"w":{"ha":1079,"x_min":36,"x_max":1043,"o":"m 876 999 l 1043 999 l 874 0 l 706 0 l 704 0 l 539 417 l 374 0 l 207 0 l 36 999 l 204 999 l 318 328 l 538 832 l 761 325 l 876 999 l 876 999 z "},"x":{"ha":757,"x_min":46,"x_max":713,"o":"m 713 999 l 463 500 l 713 0 l 546 0 l 379 333 l 213 0 l 46 0 l 296 500 l 46 999 l 213 999 l 379 667 l 546 999 l 713 999 l 713 999 z "},"y":{"ha":749,"x_min":40,"x_max":707,"o":"m 707 999 l 458 504 l 458 0 l 292 0 l 292 500 l 290 500 l 290 500 l 40 999 l 207 999 l 374 667 l 540 999 l 707 999 l 707 999 z "},"z":{"ha":761,"x_min":46,"x_max":713,"o":"m 713 999 l 713 832 l 242 167 l 713 167 l 713 0 l 46 0 l 46 167 l 519 832 l 46 832 l 46 999 l 713 999 l 713 999 z "},"A":{"ha":753,"x_min":43,"x_max":710,"o":"m 378 665 l 378 665 l 294 333 l 294 333 l 378 665 l 378 665 m 490 885 l 710 0 l 543 0 l 501 167 l 310 167 l 351 333 l 460 333 l 406 551 l 490 885 l 490 885 m 294 333 l 294 333 l 251 167 l 251 167 l 210 0 l 43 0 l 294 999 l 461 999 l 378 665 l 378 665 l 294 333 l 294 333 z "},"B":{"ha":765,"x_min":49,"x_max":715,"o":"m 713 832 l 715 832 l 715 831 l 715 831 l 715 583 l 715 583 l 631 499 l 713 417 l 715 417 l 715 414 l 715 167 l 549 0 l 404 0 l 404 167 l 478 167 l 549 240 l 549 340 l 475 417 l 404 417 l 404 583 l 478 583 l 549 657 l 549 757 l 476 832 l 404 832 l 404 999 l 549 999 l 549 999 l 713 832 l 713 832 m 215 167 l 363 167 l 363 0 l 49 0 l 49 999 l 363 999 l 363 832 l 215 832 l 215 583 l 363 583 l 363 417 l 215 417 l 215 167 l 215 167 z "},"C":{"ha":764,"x_min":49,"x_max":715,"o":"m 215 997 l 215 997 l 363 997 l 363 831 l 286 831 l 215 757 l 215 239 l 286 165 l 363 165 l 363 -1 l 215 -1 l 215 -1 l 49 165 l 49 165 l 49 165 l 49 831 l 49 831 l 49 831 l 215 997 l 215 997 m 549 997 l 715 831 l 715 707 l 549 707 l 549 756 l 478 831 l 404 831 l 404 997 l 549 997 l 549 997 m 549 240 l 549 292 l 715 292 l 715 165 l 549 -1 l 404 -1 l 404 165 l 478 165 l 549 240 l 549 240 z "},"D":{"ha":764,"x_min":49,"x_max":715,"o":"m 713 832 l 715 832 l 715 831 l 715 831 l 715 167 l 549 0 l 404 0 l 404 167 l 478 167 l 549 240 l 549 757 l 476 832 l 404 832 l 404 999 l 549 999 l 549 999 l 713 832 l 713 832 m 215 167 l 363 167 l 363 0 l 215 0 l 49 0 l 49 999 l 363 999 l 363 832 l 215 832 l 215 167 l 215 167 z "},"E":{"ha":761,"x_min":47,"x_max":714,"o":"m 214 417 l 214 167 l 214 0 l 47 0 l 47 999 l 214 999 l 214 832 l 214 583 l 214 417 l 214 417 m 714 0 l 256 0 l 256 167 l 714 167 l 714 0 l 714 0 m 465 417 l 256 417 l 256 583 l 465 583 l 465 417 l 465 417 m 714 832 l 256 832 l 256 999 l 714 999 l 714 832 l 714 832 z "},"F":{"ha":735,"x_min":35,"x_max":701,"o":"m 201 0 l 35 0 l 35 999 l 201 999 l 201 0 m 453 417 l 243 417 l 243 583 l 453 583 l 453 417 l 453 417 m 701 832 l 243 832 l 243 999 l 701 999 l 701 832 l 701 832 z "},"G":{"ha":764,"x_min":49,"x_max":715,"o":"m 476 832 l 404 832 l 404 999 l 549 999 l 715 832 l 715 708 l 549 708 l 549 757 l 476 832 l 476 832 m 286 167 l 363 167 l 363 0 l 215 0 l 215 0 l 49 167 l 49 167 l 49 167 l 49 414 l 49 585 l 49 832 l 49 832 l 49 832 l 215 999 l 215 999 l 363 999 l 363 832 l 286 832 l 215 758 l 215 240 l 286 167 l 286 167 m 467 458 l 715 458 l 715 292 l 715 292 l 715 167 l 549 0 l 404 0 l 404 167 l 476 167 l 549 242 l 549 292 l 467 292 l 467 458 l 467 458 z "},"H":{"ha":753,"x_min":43,"x_max":710,"o":"m 543 999 l 710 999 l 710 0 l 543 0 l 543 417 l 399 417 l 399 583 l 543 583 l 543 999 l 543 999 m 210 583 l 357 583 l 357 417 l 210 417 l 210 0 l 43 0 l 43 999 l 210 999 l 210 583 l 210 583 z "},"I":{"ha":269,"x_min":50,"x_max":217,"o":"m 217 0 l 50 0 l 50 999 l 217 999 l 217 0 z "},"J":{"ha":739,"x_min":35,"x_max":701,"o":"m 272 167 l 349 167 l 349 0 l 201 0 l 35 167 l 35 333 l 201 333 l 201 242 l 272 167 l 272 167 m 701 414 l 701 414 l 701 167 l 535 0 l 535 0 l 390 0 l 390 167 l 464 167 l 535 240 l 535 999 l 701 999 l 701 414 l 701 414 z "},"K":{"ha":758,"x_min":46,"x_max":713,"o":"m 307 388 l 417 535 l 713 0 l 522 0 l 307 388 l 307 388 m 478 686 l 228 353 l 228 353 l 213 333 l 213 333 l 213 0 l 46 0 l 46 999 l 213 999 l 213 608 l 508 999 l 713 999 l 478 686 l 478 686 l 478 686 z "},"L":{"ha":739,"x_min":38,"x_max":704,"o":"m 704 167 l 704 0 l 246 0 l 246 167 l 704 167 l 704 167 m 204 999 l 204 167 l 204 0 l 38 0 l 38 999 l 204 999 l 204 999 z "},"M":{"ha":933,"x_min":50,"x_max":883,"o":"m 307 999 l 453 419 l 371 86 l 217 694 l 217 0 l 50 0 l 50 999 l 307 999 l 307 999 m 717 999 l 717 999 l 640 999 l 392 0 l 558 0 l 717 636 l 717 0 l 883 0 l 883 999 l 717 999 l 717 999 z "},"N":{"ha":758,"x_min":46,"x_max":713,"o":"m 213 640 l 213 640 l 310 454 l 213 640 l 213 640 m 713 999 l 713 136 l 546 457 l 546 999 l 713 999 l 713 999 m 46 0 l 46 872 l 213 550 l 213 0 l 46 0 l 46 0 m 213 999 l 536 383 l 713 46 l 713 0 l 625 0 l 546 0 l 488 110 l 488 110 l 310 454 l 213 640 l 213 640 l 46 963 l 46 999 l 138 999 l 213 999 l 213 999 l 213 999 l 213 999 m 310 454 l 488 110 l 488 110 l 310 454 l 310 454 z "},"O":{"ha":765,"x_min":49,"x_max":715,"o":"m 286 167 l 363 167 l 363 0 l 215 0 l 49 167 l 49 414 l 49 585 l 49 832 l 215 999 l 363 999 l 363 832 l 286 832 l 215 758 l 215 240 l 286 167 l 286 167 m 549 999 l 715 832 l 715 293 l 715 167 l 549 0 l 404 0 l 404 167 l 478 167 l 549 242 l 549 293 l 549 757 l 478 832 l 404 832 l 404 999 l 549 999 l 549 999 z "},"P":{"ha":740,"x_min":38,"x_max":704,"o":"m 204 167 l 204 417 l 204 417 l 204 167 l 204 167 l 204 167 m 204 583 l 351 583 l 351 417 l 204 417 l 204 417 l 204 167 l 204 167 l 204 0 l 204 0 l 38 0 l 38 167 l 38 832 l 38 999 l 351 999 l 351 832 l 204 832 l 204 583 l 204 583 m 701 832 l 704 832 l 704 831 l 704 831 l 704 585 l 538 417 l 393 417 l 393 583 l 465 583 l 538 657 l 538 758 l 465 832 l 393 832 l 393 999 l 538 999 l 538 999 l 701 832 l 701 832 m 704 583 l 704 585 l 704 583 l 704 583 l 704 583 z "},"Q":{"ha":758,"x_min":46,"x_max":713,"o":"m 283 167 l 357 167 l 357 165 l 357 0 l 213 0 l 213 0 l 46 165 l 46 165 l 46 165 l 46 414 l 46 585 l 46 832 l 46 832 l 46 832 l 213 999 l 213 999 l 360 999 l 360 832 l 283 832 l 213 758 l 213 240 l 283 167 l 283 167 m 546 999 l 713 832 l 713 292 l 713 165 l 613 67 l 692 -71 l 525 -71 l 485 0 l 399 0 l 399 165 l 399 167 l 340 267 l 497 267 l 525 219 l 546 240 l 546 292 l 546 757 l 474 832 l 401 832 l 401 999 l 546 999 l 546 999 z "},"R":{"ha":758,"x_min":46,"x_max":713,"o":"m 397 375 l 563 375 l 713 0 l 546 0 l 397 375 l 397 375 m 213 583 l 360 583 l 360 417 l 213 417 l 213 0 l 46 0 l 46 167 l 46 999 l 360 999 l 360 832 l 213 832 l 213 583 l 213 583 m 710 832 l 713 832 l 713 831 l 713 831 l 713 585 l 546 417 l 401 417 l 401 583 l 474 583 l 546 657 l 546 758 l 474 832 l 401 832 l 401 999 l 546 999 l 710 832 l 710 832 z "},"S":{"ha":765,"x_min":49,"x_max":715,"o":"m 286 167 l 363 167 l 363 0 l 215 0 l 49 167 l 49 333 l 215 333 l 215 242 l 286 167 l 286 167 m 363 583 l 363 417 l 215 417 l 49 583 l 49 585 l 49 833 l 214 999 l 363 999 l 363 832 l 286 832 l 215 758 l 215 658 l 286 583 l 363 583 m 476 832 l 404 832 l 404 999 l 547 999 l 714 833 l 714 667 l 547 667 l 547 758 l 476 832 l 476 832 m 714 414 l 715 414 l 715 167 l 549 0 l 404 0 l 404 167 l 478 167 l 547 240 l 547 342 l 476 417 l 404 417 l 404 583 l 547 583 l 714 417 l 714 414 l 714 414 z "},"T":{"ha":742,"x_min":38,"x_max":704,"o":"m 456 832 l 289 832 l 38 832 l 38 999 l 704 999 l 704 832 l 456 832 l 456 832 m 289 0 l 289 790 l 456 790 l 456 0 l 289 0 l 289 0 z "},"U":{"ha":758,"x_min":46,"x_max":713,"o":"m 283 168 l 360 168 l 360 1 l 213 1 l 46 168 l 46 1000 l 213 1000 l 213 242 l 283 168 l 283 168 m 713 1000 l 713 168 l 546 1 l 401 1 l 401 168 l 474 168 l 546 243 l 546 1000 l 713 1000 z "},"V":{"ha":753,"x_min":43,"x_max":710,"o":"m 210 999 l 461 0 l 294 0 l 43 999 l 210 999 l 210 999 m 710 999 l 543 999 l 397 414 l 482 79 l 710 999 l 710 999 z "},"W":{"ha":1078,"x_min":36,"x_max":1042,"o":"m 317 328 l 426 582 l 515 360 l 372 0 l 206 0 l 36 999 l 201 999 l 317 328 m 703 0 l 450 635 l 536 832 l 760 325 l 875 999 l 1042 999 l 871 0 l 704 0 l 703 0 l 703 0 z "},"X":{"ha":756,"x_min":44,"x_max":711,"o":"m 711 0 l 544 0 l 44 999 l 211 999 l 711 0 m 711 999 l 483 546 l 400 713 l 544 999 l 711 999 l 711 999 m 44 0 l 271 453 l 354 286 l 211 0 l 44 0 l 44 0 z "},"Y":{"ha":749,"x_min":40,"x_max":707,"o":"m 458 496 l 458 0 l 292 0 l 292 500 l 290 500 l 290 500 l 40 999 l 207 999 l 458 496 m 707 999 l 479 546 l 396 713 l 540 999 l 707 999 l 707 999 z "},"Z":{"ha":761,"x_min":46,"x_max":713,"o":"m 713 0 l 401 0 l 401 167 l 713 167 l 713 0 l 713 0 m 46 999 l 360 999 l 360 832 l 46 832 l 46 999 l 46 999 m 519 832 l 401 832 l 401 999 l 713 999 l 713 832 l 401 394 l 401 668 l 519 832 l 519 832 m 242 167 l 360 167 l 360 0 l 46 0 l 46 167 l 360 610 l 360 335 l 242 167 l 242 167 z "},"!":{"ha":269,"x_min":50,"x_max":217,"o":"m 217 0 l 50 0 l 50 999 l 217 999 l 217 0 l 217 0 z "},"@":{"ha":765,"x_min":49,"x_max":715,"o":"m 215 999 l 363 999 l 363 832 l 286 832 l 215 758 l 215 665 l 49 665 l 49 832 l 215 999 l 215 999 m 215 167 l 363 167 l 363 0 l 215 0 l 49 0 l 49 417 l 49 417 l 49 417 l 215 583 l 300 583 l 363 583 l 363 417 l 300 417 l 215 333 l 215 167 l 215 167 m 549 999 l 715 832 l 715 793 l 715 585 l 715 582 l 549 417 l 404 417 l 404 583 l 463 583 l 478 583 l 549 657 l 549 758 l 478 832 l 404 832 l 404 999 l 549 999 l 549 999 l 549 999 m 715 0 l 404 0 l 404 167 l 715 167 l 715 0 l 715 0 z "},"#":{"ha":764,"x_min":49,"x_max":715,"o":"m 286 167 l 363 167 l 363 0 l 215 0 l 49 167 l 49 333 l 215 333 l 215 242 l 286 167 l 286 167 m 549 999 l 715 832 l 715 793 l 715 585 l 715 582 l 632 499 l 714 417 l 714 414 l 714 206 l 714 167 l 549 0 l 549 0 l 404 0 l 404 167 l 476 167 l 547 240 l 547 342 l 476 417 l 464 417 l 463 417 l 301 417 l 300 417 l 300 417 l 299 417 l 299 583 l 300 583 l 300 583 l 301 583 l 463 583 l 464 583 l 478 583 l 549 657 l 549 758 l 478 832 l 404 832 l 404 999 l 549 999 l 549 999 l 549 999 m 215 999 l 363 999 l 363 832 l 288 832 l 215 758 l 215 665 l 49 665 l 49 832 l 215 999 l 215 999 z "},"$":{"ha":781,"x_min":6,"x_max":743,"o":"m 226 417 l 464 417 l 464 250 l 6 250 l 6 292 l 6 417 l 6 417 l 464 950 l 464 694 l 226 417 l 226 417 m 672 417 l 743 417 l 743 250 l 672 250 l 672 0 l 506 0 l 506 250 l 506 417 l 506 743 l 506 999 l 506 999 l 672 999 l 672 417 l 672 417 z "},"%":{"ha":761,"x_min":47,"x_max":714,"o":"m 214 0 l 47 167 l 47 333 l 214 333 l 214 242 l 285 167 l 361 167 l 361 0 l 214 0 l 214 0 m 214 832 l 214 665 l 299 583 l 361 583 l 361 417 l 299 417 l 214 417 l 47 582 l 47 583 l 47 583 l 47 999 l 214 999 l 361 999 l 361 832 l 214 832 l 214 832 m 547 0 l 547 0 l 403 0 l 403 167 l 476 167 l 547 240 l 547 342 l 476 417 l 461 417 l 403 417 l 403 583 l 547 583 l 714 417 l 714 414 l 714 206 l 714 167 l 547 0 l 547 0 m 714 999 l 714 832 l 403 832 l 403 999 l 714 999 l 714 999 z "},"&":{"ha":733,"x_min":33,"x_max":700,"o":"m 700 999 l 700 832 l 33 832 l 33 999 l 700 999 l 700 999 m 33 0 l 508 790 l 675 790 l 200 0 l 33 0 l 33 0 z "},"*":{"ha":765,"x_min":49,"x_max":715,"o":"m 286 583 l 363 583 l 363 583 l 286 583 l 286 583 m 463 417 l 464 417 l 476 417 l 404 417 l 404 417 l 463 417 l 463 417 m 215 758 l 215 665 l 215 665 l 215 758 l 215 758 m 300 417 l 299 417 l 299 417 l 363 417 l 363 417 l 301 417 l 300 417 l 300 417 l 300 417 m 215 333 l 215 333 l 215 242 l 215 333 l 215 333 m 286 167 l 363 167 l 363 0 l 215 0 l 49 167 l 49 417 l 131 500 l 49 583 l 49 832 l 215 999 l 363 999 l 363 832 l 288 832 l 215 758 l 215 665 l 215 665 l 215 658 l 286 583 l 363 583 l 363 417 l 299 417 l 299 417 l 286 417 l 215 342 l 215 333 l 215 333 l 215 242 l 286 167 l 286 167 m 715 832 l 715 582 l 632 499 l 714 417 l 714 167 l 549 0 l 549 0 l 404 0 l 404 167 l 476 167 l 547 240 l 547 342 l 476 417 l 404 417 l 404 583 l 463 583 l 464 583 l 478 583 l 549 657 l 549 758 l 478 832 l 404 832 l 404 999 l 549 999 l 549 999 l 715 832 l 715 832 m 404 583 l 404 583 l 478 583 l 464 583 l 463 583 l 404 583 l 404 583 m 215 665 l 215 665 l 215 658 l 215 665 l 215 665 m 215 333 l 215 342 l 215 333 l 215 333 l 215 333 m 299 417 l 286 417 l 299 417 l 299 417 l 299 417 z "},"(":{"ha":765,"x_min":49,"x_max":715,"o":"m 715 832 l 715 167 l 715 167 l 549 0 l 549 0 l 404 0 l 404 167 l 478 167 l 549 240 l 549 417 l 404 417 l 404 583 l 463 583 l 549 665 l 549 758 l 476 832 l 404 832 l 404 999 l 549 999 l 715 832 l 715 832 m 300 583 l 363 583 l 363 417 l 215 417 l 49 582 l 49 832 l 215 999 l 215 999 l 363 999 l 363 832 l 286 832 l 215 758 l 215 657 l 286 583 l 300 583 l 300 583 m 286 167 l 363 167 l 363 0 l 215 0 l 49 167 l 49 333 l 215 333 l 215 242 l 286 167 l 286 167 z "},")":{"ha":765,"x_min":49,"x_max":715,"o":"m 363 167 l 363 0 l 215 0 l 49 167 l 49 414 l 49 585 l 49 832 l 215 999 l 363 999 l 363 832 l 286 832 l 215 758 l 215 240 l 286 167 l 363 167 m 715 832 l 715 293 l 715 167 l 549 0 l 404 0 l 404 167 l 478 167 l 549 242 l 549 293 l 549 757 l 478 832 l 404 832 l 404 999 l 549 999 l 715 832 z "},"\"":{"ha":758,"x_min":46,"x_max":713,"o":"m 307 388 l 417 533 l 713 0 l 522 0 l 307 388 l 307 388 m 46 0 l 46 269 l 213 269 l 213 0 l 46 0 l 46 0 m 213 333 l 213 311 l 46 311 l 46 686 l 213 686 l 213 608 l 213 333 l 213 333 m 213 999 l 213 728 l 46 728 l 46 999 l 213 999 l 213 999 m 478 685 l 478 685 l 254 388 l 254 663 l 508 999 l 713 999 l 478 685 l 478 685 z "},"'":{"ha":758,"x_min":46,"x_max":713,"o":"m 307 388 l 417 535 l 713 0 l 522 0 l 307 388 l 307 388 m 213 608 l 213 333 l 213 0 l 46 0 l 46 999 l 213 999 l 213 608 l 213 608 m 508 999 l 713 999 l 478 686 l 478 686 l 254 388 l 254 664 l 508 999 l 508 999 z "},"+":{"ha":764,"x_min":49,"x_max":715,"o":"m 549 271 l 549 313 l 715 313 l 715 271 l 715 167 l 549 0 l 404 0 l 404 167 l 478 167 l 549 240 l 549 271 l 549 271 m 715 831 l 715 707 l 549 707 l 549 757 l 476 832 l 404 832 l 404 999 l 549 999 l 549 999 l 713 832 l 715 832 l 715 831 l 715 831 l 715 831 m 549 665 l 715 665 l 715 354 l 549 354 l 549 665 l 549 665 m 49 271 l 49 313 l 215 313 l 215 271 l 215 167 l 363 167 l 363 0 l 215 0 l 49 0 l 49 167 l 49 271 l 49 271 m 215 832 l 215 707 l 49 707 l 49 832 l 49 999 l 215 999 l 363 999 l 363 832 l 215 832 l 215 832 m 215 665 l 215 354 l 49 354 l 49 665 l 215 665 l 215 665 z "},",":{"ha":739,"x_min":38,"x_max":704,"o":"m 246 0 l 246 167 l 704 167 l 704 0 l 246 0 l 246 0 m 38 0 l 38 479 l 204 479 l 204 167 l 204 0 l 38 0 l 38 0 m 204 999 l 204 521 l 38 521 l 38 999 l 204 999 l 204 999 z "},"-":{"ha":765,"x_min":49,"x_max":715,"o":"m 549 240 l 549 271 l 715 271 l 715 167 l 549 0 l 404 0 l 404 167 l 478 167 l 549 240 l 549 240 m 715 583 l 715 583 l 631 499 l 713 417 l 715 417 l 715 414 l 715 313 l 549 313 l 549 340 l 475 417 l 404 417 l 404 583 l 478 583 l 549 657 l 549 686 l 715 686 l 715 583 l 715 583 m 549 757 l 476 832 l 404 832 l 404 999 l 549 999 l 549 999 l 713 832 l 715 832 l 715 831 l 715 831 l 715 728 l 549 728 l 549 757 l 549 757 m 215 832 l 215 728 l 49 728 l 49 832 l 49 999 l 215 999 l 363 999 l 363 832 l 215 832 l 215 832 m 215 271 l 215 167 l 363 167 l 363 0 l 215 0 l 49 0 l 49 167 l 49 271 l 215 271 l 215 271 m 215 417 l 215 313 l 49 313 l 49 686 l 215 686 l 215 583 l 363 583 l 363 417 l 215 417 l 215 417 z "},".":{"ha":933,"x_min":50,"x_max":883,"o":"m 307 999 l 453 419 l 371 86 l 217 694 l 217 0 l 50 0 l 50 999 l 140 999 l 140 999 l 307 999 l 307 999 m 640 999 l 675 999 l 675 468 l 558 0 l 392 0 l 392 0 l 475 333 l 640 999 l 640 999 m 717 999 l 883 999 l 883 0 l 717 0 l 717 28 l 717 636 l 717 999 l 717 999 l 717 999 z "},"/":{"ha":740,"x_min":38,"x_max":704,"o":"m 621 497 l 619 499 l 669 549 l 621 497 l 621 497 m 204 167 l 204 417 l 204 417 l 204 167 l 204 167 l 204 167 m 38 167 l 38 686 l 204 686 l 204 583 l 351 583 l 351 417 l 204 417 l 204 417 l 204 167 l 204 167 l 204 0 l 204 0 l 38 0 l 38 167 l 38 167 m 204 832 l 204 728 l 38 728 l 38 832 l 38 999 l 204 999 l 351 999 l 351 832 l 204 832 l 204 832 m 538 657 l 538 686 l 704 686 l 704 585 l 669 549 l 538 417 l 464 417 l 393 417 l 393 583 l 467 583 l 538 657 l 538 657 m 704 831 l 704 728 l 538 728 l 538 757 l 465 832 l 393 832 l 393 999 l 538 999 l 538 999 l 701 832 l 704 832 l 704 831 l 704 831 l 704 831 m 704 583 l 669 549 l 704 585 l 704 583 l 704 583 l 704 583 z "},":":{"ha":738,"x_min":35,"x_max":701,"o":"m 201 242 l 272 167 l 349 167 l 349 0 l 201 0 l 35 167 l 35 333 l 201 333 l 201 242 l 201 242 m 701 999 l 701 522 l 535 522 l 535 999 l 701 999 l 701 999 m 535 481 l 701 481 l 701 414 l 701 414 l 701 167 l 535 0 l 535 0 l 390 0 l 390 167 l 464 167 l 535 240 l 535 481 l 535 481 z "},";":{"ha":751,"x_min":43,"x_max":710,"o":"m 43 0 l 43 478 l 210 478 l 210 415 l 210 0 l 43 0 l 43 0 m 210 582 l 210 519 l 43 519 l 43 999 l 210 999 l 210 582 l 210 582 m 251 582 l 357 582 l 501 582 l 501 415 l 357 415 l 251 415 l 251 582 l 251 582 m 543 415 l 543 478 l 710 478 l 710 0 l 543 0 l 543 415 l 543 415 m 710 999 l 710 519 l 543 519 l 543 582 l 543 999 l 710 999 l 710 999 z "},"<":{"ha":738,"x_min":36,"x_max":703,"o":"m 244 165 l 703 165 l 703 0 l 244 0 l 244 165 l 244 165 m 203 999 l 203 728 l 36 728 l 36 999 l 203 999 l 203 999 m 203 686 l 203 311 l 36 311 l 36 686 l 203 686 l 203 686 m 36 269 l 203 269 l 203 165 l 203 0 l 36 0 l 36 269 l 36 269 z "},"=":{"ha":764,"x_min":49,"x_max":715,"o":"m 715 831 l 715 521 l 549 521 l 549 757 l 476 832 l 404 832 l 404 999 l 549 999 l 549 999 l 713 832 l 715 832 l 715 831 l 715 831 l 715 831 m 549 271 l 549 479 l 715 479 l 715 271 l 715 167 l 549 0 l 404 0 l 404 167 l 478 167 l 549 240 l 549 271 l 549 271 m 215 832 l 215 521 l 49 521 l 49 832 l 49 999 l 215 999 l 363 999 l 363 832 l 215 832 l 215 832 m 49 271 l 49 479 l 215 479 l 215 271 l 215 167 l 363 167 l 363 0 l 215 0 l 49 0 l 49 167 l 49 271 l 49 271 z "},">":{"ha":764,"x_min":49,"x_max":715,"o":"m 215 758 l 215 728 l 49 728 l 49 832 l 49 832 l 49 832 l 215 999 l 215 999 l 363 999 l 363 832 l 286 832 l 215 758 l 215 758 m 215 240 l 286 167 l 363 167 l 363 0 l 215 0 l 215 0 l 49 167 l 49 167 l 49 167 l 49 269 l 215 269 l 215 240 l 215 240 m 215 686 l 215 311 l 49 311 l 49 414 l 49 585 l 49 686 l 215 686 l 215 686 m 549 686 l 715 686 l 715 311 l 549 311 l 549 686 l 549 686 m 549 757 l 478 832 l 404 832 l 404 999 l 549 999 l 715 832 l 715 728 l 549 728 l 549 757 l 549 757 m 549 242 l 549 269 l 715 269 l 715 167 l 549 0 l 404 0 l 404 167 l 478 167 l 549 242 l 549 242 z "},"?":{"ha":758,"x_min":46,"x_max":713,"o":"m 46 414 l 46 479 l 213 479 l 213 240 l 283 167 l 358 167 l 358 167 l 358 0 l 213 0 l 46 167 l 46 167 l 46 167 l 46 414 l 46 414 m 213 760 l 213 521 l 46 521 l 46 586 l 46 833 l 46 833 l 46 833 l 213 999 l 213 1000 l 360 1000 l 360 833 l 283 833 l 213 760 l 213 760 m 546 293 l 546 479 l 713 479 l 713 293 l 713 167 l 613 68 l 692 -69 l 525 -69 l 485 0 l 400 0 l 400 167 l 399 167 l 342 268 l 497 268 l 525 221 l 546 242 l 546 293 l 546 293 m 713 833 l 713 521 l 546 521 l 546 758 l 475 833 l 401 833 l 401 1000 l 546 1000 l 713 833 l 713 833 z "},"[":{"ha":761,"x_min":47,"x_max":714,"o":"m 214 415 l 214 311 l 47 311 l 47 686 l 214 686 l 214 582 l 214 415 l 214 415 m 47 269 l 214 269 l 214 165 l 214 0 l 47 0 l 47 269 l 47 269 m 214 832 l 214 728 l 47 728 l 47 999 l 214 999 l 214 832 l 214 832 m 256 0 l 256 165 l 714 165 l 714 0 l 256 0 l 256 0 m 465 415 l 256 415 l 256 582 l 465 582 l 465 415 l 465 415 m 256 999 l 714 999 l 714 832 l 256 832 l 256 999 l 256 999 z "},"\\":{"ha":750,"x_min":42,"x_max":708,"o":"m 208 999 l 208 789 l 42 789 l 42 999 l 208 999 l 208 999 m 208 417 l 208 250 l 42 250 l 42 747 l 208 747 l 208 583 l 208 417 l 208 417 m 42 0 l 42 208 l 208 208 l 208 0 l 42 0 l 42 0 m 356 417 l 250 417 l 250 583 l 356 583 l 500 583 l 500 417 l 356 417 l 356 417 m 708 999 l 708 789 l 542 789 l 542 999 l 708 999 l 708 999 m 542 747 l 708 747 l 708 250 l 542 250 l 542 417 l 542 583 l 542 747 l 542 747 m 542 0 l 542 208 l 708 208 l 708 0 l 542 0 l 542 0 z "},"]":{"ha":764,"x_min":49,"x_max":715,"o":"m 549 757 l 476 832 l 404 832 l 404 999 l 549 999 l 715 832 l 715 708 l 549 708 l 549 757 l 549 757 m 49 414 l 49 479 l 215 479 l 215 240 l 286 167 l 363 167 l 363 0 l 215 0 l 215 0 l 49 167 l 49 167 l 49 167 l 49 414 l 49 414 m 215 758 l 215 521 l 49 521 l 49 585 l 49 832 l 49 832 l 49 832 l 215 999 l 215 999 l 363 999 l 363 832 l 286 832 l 215 758 l 215 758 m 467 292 l 467 458 l 715 458 l 715 292 l 715 292 l 715 167 l 549 0 l 404 0 l 404 167 l 476 167 l 549 242 l 549 292 l 467 292 l 467 292 z "},"^":{"ha":765,"x_min":49,"x_max":715,"o":"m 49 167 l 49 832 l 49 832 l 215 999 l 215 999 l 358 999 l 358 832 l 286 832 l 215 758 l 215 583 l 358 583 l 358 417 l 300 417 l 215 333 l 215 242 l 286 167 l 358 167 l 358 0 l 215 0 l 49 167 l 49 167 m 463 417 l 400 417 l 400 583 l 549 583 l 715 417 l 715 167 l 549 0 l 549 0 l 400 0 l 400 167 l 478 167 l 549 240 l 549 342 l 478 417 l 463 417 l 463 417 m 476 832 l 400 832 l 400 999 l 549 999 l 715 832 l 715 665 l 549 665 l 549 758 l 476 832 l 476 832 z "},"_":{"ha":764,"x_min":49,"x_max":715,"o":"m 215 758 l 215 521 l 49 521 l 49 585 l 49 832 l 49 832 l 49 832 l 215 999 l 215 999 l 363 999 l 363 832 l 286 832 l 215 758 l 215 758 m 49 414 l 49 479 l 215 479 l 215 240 l 286 167 l 363 167 l 363 0 l 215 0 l 215 0 l 49 167 l 49 167 l 49 167 l 49 414 l 49 414 m 549 757 l 478 832 l 404 832 l 404 999 l 549 999 l 715 832 l 715 708 l 549 708 l 549 757 l 549 757 m 549 242 l 549 293 l 715 293 l 715 167 l 549 0 l 404 0 l 404 167 l 478 167 l 549 242 l 549 242 z "},"`":{"ha":758,"x_min":46,"x_max":713,"o":"m 46 167 l 46 311 l 213 311 l 213 240 l 283 167 l 358 167 l 358 165 l 358 0 l 213 0 l 213 0 l 46 167 l 46 167 l 46 167 l 46 167 m 213 686 l 213 353 l 46 353 l 46 414 l 46 585 l 46 686 l 213 686 l 213 686 m 213 758 l 213 728 l 46 728 l 46 832 l 46 832 l 46 832 l 213 999 l 213 999 l 360 999 l 360 832 l 283 832 l 213 758 l 213 758 m 546 686 l 713 686 l 713 353 l 546 353 l 546 686 l 546 686 m 546 292 l 546 311 l 713 311 l 713 292 l 713 167 l 613 67 l 692 -71 l 525 -71 l 485 0 l 400 0 l 400 165 l 399 167 l 342 267 l 497 267 l 525 219 l 546 242 l 546 292 l 546 292 m 713 832 l 713 728 l 546 728 l 546 757 l 475 832 l 401 832 l 401 999 l 546 999 l 713 832 l 713 832 z "},"{":{"ha":733,"x_min":33,"x_max":700,"o":"m 200 832 l 200 731 l 33 731 l 33 999 l 200 999 l 200 832 l 200 832 m 200 417 l 200 313 l 33 313 l 33 689 l 200 689 l 200 583 l 200 417 l 200 417 m 33 0 l 33 271 l 200 271 l 200 167 l 200 0 l 33 0 l 33 0 m 451 417 l 242 417 l 242 583 l 451 583 l 451 417 l 451 417 m 700 999 l 700 832 l 242 832 l 242 999 l 700 999 l 700 999 z "},"|":{"ha":764,"x_min":49,"x_max":715,"o":"m 549 757 l 478 832 l 404 832 l 404 999 l 549 999 l 715 832 l 715 707 l 549 707 l 549 757 l 549 757 m 215 665 l 215 332 l 49 332 l 49 414 l 49 585 l 49 665 l 215 665 l 215 665 m 215 758 l 215 707 l 49 707 l 49 832 l 49 832 l 49 832 l 215 999 l 215 999 l 363 999 l 363 832 l 286 832 l 215 758 l 215 758 m 215 240 l 286 167 l 363 167 l 363 0 l 215 0 l 215 0 l 49 167 l 49 167 l 49 167 l 49 290 l 215 290 l 215 240 l 215 240 m 467 458 l 715 458 l 715 292 l 715 292 l 715 167 l 549 0 l 404 0 l 404 167 l 478 167 l 549 242 l 549 292 l 467 292 l 467 458 l 467 458 z "},"}":{"ha":758,"x_min":46,"x_max":713,"o":"m 397 374 l 563 374 l 713 0 l 546 0 l 397 374 l 397 374 m 46 999 l 213 999 l 360 999 l 360 832 l 213 832 l 213 728 l 46 728 l 46 832 l 46 999 l 46 999 m 213 686 l 213 582 l 360 582 l 360 415 l 276 415 l 276 415 l 213 415 l 213 415 l 213 311 l 46 311 l 46 686 l 213 686 l 213 686 m 46 167 l 46 269 l 213 269 l 213 167 l 213 167 l 213 0 l 213 0 l 46 0 l 46 167 l 46 167 m 546 657 l 546 686 l 713 686 l 713 583 l 678 549 l 546 415 l 401 415 l 401 582 l 475 582 l 546 657 l 546 657 m 710 832 l 713 832 l 713 829 l 713 829 l 713 728 l 546 728 l 546 757 l 474 832 l 401 832 l 401 999 l 546 999 l 546 999 l 710 832 l 710 832 z "},"~":{"ha":765,"x_min":49,"x_max":715,"o":"m 286 167 l 363 167 l 363 0 l 215 0 l 49 167 l 49 333 l 215 333 l 215 242 l 286 167 m 215 728 l 49 728 l 49 793 l 49 832 l 215 999 l 215 999 l 363 999 l 363 832 l 286 832 l 215 758 l 215 728 m 49 585 l 49 686 l 215 686 l 215 657 l 286 583 l 300 583 l 363 583 l 363 417 l 300 417 l 215 417 l 49 582 l 49 585 m 476 832 l 404 832 l 404 999 l 549 999 l 715 832 l 715 665 l 549 665 l 549 758 l 476 832 m 715 313 l 549 313 l 549 342 l 476 417 l 463 417 l 404 417 l 404 583 l 463 583 l 549 583 l 715 417 l 715 414 l 715 313 m 549 271 l 715 271 l 715 167 l 549 0 l 549 0 l 404 0 l 404 167 l 478 167 l 549 240 l 549 271 z "},"Š":{"ha":764,"x_min":49,"x_max":715,"o":"m 215 758 l 215 707 l 49 707 l 49 832 l 215 999 l 363 999 l 363 832 l 286 832 l 215 758 l 215 758 m 49 167 l 49 290 l 215 290 l 215 240 l 286 167 l 363 167 l 363 0 l 215 0 l 49 167 l 49 167 l 49 167 l 49 167 m 49 665 l 215 665 l 215 332 l 49 332 l 49 665 m 549 999 l 715 832 l 715 707 l 549 707 l 549 757 l 478 832 l 404 832 l 404 999 l 549 999 l 549 999 m 549 242 l 549 292 l 715 292 l 715 167 l 549 0 l 404 0 l 404 167 l 478 167 l 549 242 l 549 242 z "},"a":{"ha":754,"x_min":43,"x_max":710,"o":"m 294 333 l 460 333 l 378 665 l 294 333 l 294 333 m 543 0 l 501 167 l 251 167 l 210 0 l 43 0 l 294 999 l 461 999 l 710 0 l 543 0 l 543 0 z "},"b":{"ha":765,"x_min":49,"x_max":715,"o":"m 478 583 l 549 657 l 549 757 l 476 832 l 215 832 l 215 583 l 478 583 l 478 583 m 549 240 l 549 340 l 475 417 l 215 417 l 215 167 l 478 167 l 549 240 l 549 240 m 713 832 l 715 832 l 715 831 l 715 831 l 715 583 l 715 583 l 631 499 l 713 417 l 715 417 l 715 414 l 715 167 l 549 0 l 215 0 l 49 0 l 49 167 l 49 832 l 49 999 l 215 999 l 549 999 l 549 999 l 713 832 l 713 832 z "},"c":{"ha":764,"x_min":49,"x_max":715,"o":"m 715 708 l 549 708 l 549 757 l 478 832 l 286 832 l 215 758 l 215 240 l 286 167 l 478 167 l 549 242 l 549 293 l 715 293 l 715 167 l 549 0 l 215 0 l 49 167 l 49 832 l 215 999 l 549 999 l 715 832 l 715 708 l 715 708 z "},"d":{"ha":764,"x_min":49,"x_max":715,"o":"m 476 832 l 404 832 l 215 832 l 215 271 l 215 167 l 404 167 l 478 167 l 549 240 l 549 271 l 549 757 l 476 832 l 476 832 m 713 832 l 715 832 l 715 831 l 715 831 l 715 271 l 715 167 l 549 0 l 404 0 l 215 0 l 49 0 l 49 167 l 49 271 l 49 832 l 49 999 l 215 999 l 404 999 l 549 999 l 549 999 l 713 832 l 713 832 z "},"€":{"ha":758,"x_min":46,"x_max":713,"o":"m 213 571 l 213 0 l 46 0 l 46 999 l 213 999 l 213 571 m 504 899 l 504 465 l 446 332 l 318 332 l 254 476 l 254 900 l 381 601 l 504 899 m 713 999 l 713 0 l 546 0 l 546 561 l 546 999 l 713 999 z "},"‚":{"ha":753,"x_min":43,"x_max":710,"o":"m 210 999 l 310 603 l 143 603 l 43 999 l 210 999 l 210 999 m 294 0 l 153 561 l 319 561 l 378 333 l 461 0 l 294 0 l 294 0 m 710 999 l 611 603 l 444 603 l 543 999 l 710 999 l 710 999 m 397 414 l 435 561 l 601 561 l 482 79 l 397 414 l 397 414 z "},"ƒ":{"ha":758,"x_min":46,"x_max":713,"o":"m 46 313 l 213 313 l 213 240 l 283 167 l 358 167 l 358 167 l 358 0 l 213 0 l 46 167 l 46 313 m 213 354 l 46 354 l 46 414 l 46 586 l 46 688 l 213 688 l 213 354 m 213 729 l 46 729 l 46 833 l 46 833 l 46 833 l 213 999 l 213 1000 l 360 1000 l 360 833 l 283 833 l 213 760 l 213 729 m 713 688 l 713 354 l 546 354 l 546 688 l 713 688 m 546 313 l 713 313 l 713 293 l 713 167 l 613 68 l 692 -69 l 525 -69 l 485 0 l 400 0 l 400 167 l 399 167 l 342 268 l 497 268 l 525 221 l 546 242 l 546 293 l 546 313 m 713 729 l 546 729 l 546 758 l 475 833 l 401 833 l 401 1000 l 546 1000 l 713 833 l 713 729 z "},"„":{"ha":758,"x_min":46,"x_max":713,"o":"m 397 374 l 563 374 l 713 0 l 546 0 l 397 374 l 397 374 m 213 415 l 213 167 l 213 0 l 46 0 l 46 167 l 46 832 l 46 999 l 213 999 l 213 832 l 213 582 l 213 415 l 213 415 m 713 829 l 713 728 l 546 728 l 546 757 l 474 832 l 254 832 l 254 999 l 546 999 l 546 999 l 710 832 l 713 832 l 713 829 l 713 829 l 713 829 m 546 657 l 546 686 l 713 686 l 713 583 l 678 549 l 546 415 l 276 415 l 276 415 l 254 415 l 254 582 l 475 582 l 546 657 l 546 657 m 213 0 l 213 167 l 213 167 l 213 0 l 213 0 l 213 0 z "},"†":{"ha":758,"x_min":46,"x_max":713,"o":"m 397 374 l 563 374 l 713 0 l 546 0 l 397 374 l 397 374 m 213 415 l 213 167 l 213 0 l 46 0 l 46 167 l 46 832 l 46 999 l 213 999 l 213 832 l 213 582 l 213 415 l 213 415 m 713 829 l 713 728 l 546 728 l 546 757 l 474 832 l 254 832 l 254 999 l 546 999 l 546 999 l 710 832 l 713 832 l 713 829 l 713 829 l 713 829 m 546 657 l 546 686 l 713 686 l 713 583 l 678 549 l 546 415 l 276 415 l 276 415 l 254 415 l 254 582 l 475 582 l 546 657 l 546 657 m 213 0 l 213 167 l 213 167 l 213 0 l 213 0 l 213 0 z "},"‡":{"ha":758,"x_min":46,"x_max":713,"o":"m 397 374 l 563 374 l 713 0 l 546 0 l 397 374 l 397 374 m 213 832 l 213 728 l 46 728 l 46 832 l 46 999 l 213 999 l 213 832 l 213 832 m 213 415 l 213 311 l 46 311 l 46 686 l 213 686 l 213 582 l 213 415 l 213 415 m 46 167 l 46 269 l 213 269 l 213 167 l 213 0 l 46 0 l 46 167 l 46 167 m 710 832 l 713 832 l 713 829 l 713 829 l 713 728 l 546 728 l 546 757 l 474 832 l 254 832 l 254 999 l 546 999 l 546 999 l 710 832 l 710 832 m 546 657 l 546 686 l 713 686 l 713 583 l 678 549 l 546 415 l 276 415 l 276 415 l 254 415 l 254 582 l 475 582 l 546 657 l 546 657 m 213 0 l 213 0 l 213 167 l 213 167 l 213 0 l 213 0 z "},"‰":{"ha":758,"x_min":46,"x_max":713,"o":"m 546 999 l 713 999 l 713 0 l 546 0 l 546 561 l 446 332 l 318 332 l 213 571 l 213 0 l 46 0 l 46 999 l 213 999 l 381 601 l 546 999 l 546 999 z "},"Œ":{"ha":758,"x_min":46,"x_max":713,"o":"m 213 999 l 213 519 l 46 519 l 46 999 l 213 999 l 213 999 m 46 0 l 46 478 l 213 478 l 213 0 l 46 0 l 46 0 m 254 900 l 381 601 l 504 899 l 504 465 l 446 332 l 318 332 l 254 476 l 254 900 l 254 900 m 546 0 l 546 478 l 713 478 l 713 0 l 546 0 l 546 0 m 713 999 l 713 519 l 546 519 l 546 999 l 713 999 l 713 999 z "},"‘":{"ha":758,"x_min":46,"x_max":713,"o":"m 213 0 l 46 0 l 46 999 l 213 999 l 213 438 l 313 665 l 440 665 l 546 428 l 546 999 l 713 999 l 713 0 l 546 0 l 376 397 l 213 0 l 213 0 z "},"’":{"ha":758,"x_min":46,"x_max":713,"o":"m 546 0 l 546 478 l 713 478 l 713 0 l 546 0 l 546 0 m 713 999 l 713 519 l 546 519 l 546 999 l 713 999 l 713 999 m 504 97 l 376 396 l 254 100 l 254 532 l 313 665 l 440 665 l 504 521 l 504 97 l 504 97 m 213 999 l 213 519 l 46 519 l 46 999 l 213 999 l 213 999 m 46 0 l 46 478 l 213 478 l 213 0 l 46 0 l 46 0 z "},"“":{"ha":758,"x_min":46,"x_max":713,"o":"m 546 0 l 546 999 l 713 999 l 713 0 l 546 0 l 546 0 m 376 397 l 254 100 l 254 532 l 313 665 l 440 665 l 504 522 l 504 99 l 376 397 l 376 397 m 213 0 l 46 0 l 46 999 l 213 999 l 213 0 l 213 0 z "},"”":{"ha":758,"x_min":46,"x_max":713,"o":"m 213 999 l 213 571 l 213 50 l 213 0 l 46 0 l 46 999 l 213 999 l 213 999 m 381 603 l 504 899 l 504 467 l 446 333 l 318 333 l 254 476 l 254 901 l 381 603 l 381 603 m 546 999 l 713 999 l 713 0 l 546 0 l 546 15 l 546 561 l 546 999 l 546 999 z "},"•":{"ha":528,"x_min":40,"x_max":486,"o":"m 486 529 l 486 417 l 319 417 l 319 250 l 208 250 l 208 417 l 40 417 l 40 529 l 208 529 l 208 696 l 319 696 l 319 529 l 486 529 l 486 529 z "},"e":{"ha":761,"x_min":47,"x_max":714,"o":"m 714 832 l 214 832 l 214 583 l 465 583 l 465 417 l 214 417 l 214 167 l 714 167 l 714 0 l 214 0 l 47 0 l 47 999 l 214 999 l 714 999 l 714 832 l 714 832 z "}}}
